RBDS020runT45_grf
version=1
nRows=37
nColumns=19
inDegrees=no
endheader
time	ground_force_r_vx	ground_force_r_vy	ground_force_r_vz	ground_force_r_px	ground_force_r_py	ground_force_r_pz	ground_force_r_mx	ground_force_r_my	ground_force_r_mz	ground_force_l_vx	ground_force_l_vy	ground_force_l_vz	ground_force_l_px	ground_force_l_py	ground_force_l_pz	ground_force_l_mx	ground_force_l_my	ground_force_l_mz
     22.49800000	      0.00000000	      0.00000000	      0.00000000	      0.00000000	      0.00000000	      0.00000000	      0.00000000	      0.00000000	      0.00000000	    247.31817587	    970.08865008	    -11.44589627	      1.99574163	      0.00000000	      0.95209300	      0.00000000	      8.38935535	      0.00000000
     22.49900000	      0.00000000	      0.00000000	      0.00000000	      0.00000000	      0.00000000	      0.00000000	      0.00000000	      0.00000000	      0.00000000	    247.52168416	    948.90653483	    -12.25644124	      1.99234816	      0.00000000	      0.95222024	      0.00000000	      8.22646752	      0.00000000
     22.50000000	      0.00000000	      0.00000000	      0.00000000	      0.00000000	      0.00000000	      0.00000000	      0.00000000	      0.00000000	      0.00000000	    247.72519246	    927.72441958	    -13.06698620	      1.98895469	      0.00000000	      0.95234748	      0.00000000	      8.06357968	      0.00000000
     22.50100000	      0.00000000	      0.00000000	      0.00000000	      0.00000000	      0.00000000	      0.00000000	      0.00000000	      0.00000000	      0.00000000	    247.06081968	    906.11335693	    -13.69215881	      1.98586022	      0.00000000	      0.95248033	      0.00000000	      7.88337101	      0.00000000
     22.50200000	      0.00000000	      0.00000000	      0.00000000	      0.00000000	      0.00000000	      0.00000000	      0.00000000	      0.00000000	      0.00000000	    246.39644689	    884.50229428	    -14.31733142	      1.98276575	      0.00000000	      0.95261317	      0.00000000	      7.70316235	      0.00000000
     22.50300000	      0.00000000	      0.00000000	      0.00000000	      0.00000000	      0.00000000	      0.00000000	      0.00000000	      0.00000000	      0.00000000	    245.73207411	    862.89123162	    -14.94250403	      1.97967128	      0.00000000	      0.95274602	      0.00000000	      7.52295368	      0.00000000
     22.50400000	      0.00000000	      0.00000000	      0.00000000	      0.00000000	      0.00000000	      0.00000000	      0.00000000	      0.00000000	      0.00000000	    244.52193678	    841.12814968	    -15.44382691	      1.97679845	      0.00000000	      0.95288201	      0.00000000	      7.33087321	      0.00000000
     22.50500000	      0.00000000	      0.00000000	      0.00000000	      0.00000000	      0.00000000	      0.00000000	      0.00000000	      0.00000000	      0.00000000	    243.03891717	    819.28905810	    -15.88322492	      1.97403644	      0.00000000	      0.95301956	      0.00000000	      7.13285684	      0.00000000
     22.50600000	      0.00000000	      0.00000000	      0.00000000	      0.00000000	      0.00000000	      0.00000000	      0.00000000	      0.00000000	      0.00000000	    241.55589757	    797.44996651	    -16.32262293	      1.97127443	      0.00000000	      0.95315711	      0.00000000	      6.93484048	      0.00000000
     22.50700000	      0.00000000	      0.00000000	      0.00000000	      0.00000000	      0.00000000	      0.00000000	      0.00000000	      0.00000000	      0.00000000	    239.82177609	    775.60318535	    -16.70171917	      1.96863275	      0.00000000	      0.95329594	      0.00000000	      6.73086989	      0.00000000
     22.50800000	      0.00000000	      0.00000000	      0.00000000	      0.00000000	      0.00000000	      0.00000000	      0.00000000	      0.00000000	      0.00000000	    237.58545085	    753.74102503	    -16.96021187	      1.96623170	      0.00000000	      0.95343732	      0.00000000	      6.51499085	      0.00000000
     22.50900000	      0.00000000	      0.00000000	      0.00000000	      0.00000000	      0.00000000	      0.00000000	      0.00000000	      0.00000000	      0.00000000	    235.34912562	    731.87886471	    -17.21870456	      1.96383065	      0.00000000	      0.95357870	      0.00000000	      6.29911181	      0.00000000
     22.51000000	      0.00000000	      0.00000000	      0.00000000	      0.00000000	      0.00000000	      0.00000000	      0.00000000	      0.00000000	      0.00000000	    233.11280038	    710.01670438	    -17.47719725	      1.96142960	      0.00000000	      0.95372008	      0.00000000	      6.08323277	      0.00000000
     22.51100000	      0.00000000	      0.00000000	      0.00000000	      0.00000000	      0.00000000	      0.00000000	      0.00000000	      0.00000000	      0.00000000	    230.20288686	    688.33651623	    -17.56450244	      1.95941154	      0.00000000	      0.95386441	      0.00000000	      5.84995682	      0.00000000
     22.51200000	      0.00000000	      0.00000000	      0.00000000	      0.00000000	      0.00000000	      0.00000000	      0.00000000	      0.00000000	      0.00000000	    227.29297333	    666.65632807	    -17.65180762	      1.95739349	      0.00000000	      0.95400874	      0.00000000	      5.61668087	      0.00000000
     22.51300000	      0.00000000	      0.00000000	      0.00000000	      0.00000000	      0.00000000	      0.00000000	      0.00000000	      0.00000000	      0.00000000	    224.38305981	    644.97613992	    -17.73911281	      1.95537544	      0.00000000	      0.95415306	      0.00000000	      5.38340492	      0.00000000
     22.51400000	      0.00000000	      0.00000000	      0.00000000	      0.00000000	      0.00000000	      0.00000000	      0.00000000	      0.00000000	      0.00000000	    221.08535473	    623.55129086	    -17.72161335	      1.95362221	      0.00000000	      0.95429875	      0.00000000	      5.13923443	      0.00000000
     22.51500000	      0.00000000	      0.00000000	      0.00000000	      0.00000000	      0.00000000	      0.00000000	      0.00000000	      0.00000000	      0.00000000	    217.59375387	    602.25411135	    -17.65171158	      1.95200139	      0.00000000	      0.95444511	      0.00000000	      4.88961666	      0.00000000
     22.51600000	      0.00000000	      0.00000000	      0.00000000	      0.00000000	      0.00000000	      0.00000000	      0.00000000	      0.00000000	      0.00000000	    214.10215301	    580.95693184	    -17.58180980	      1.95038057	      0.00000000	      0.95459148	      0.00000000	      4.63999889	      0.00000000
     22.51700000	      0.00000000	      0.00000000	      0.00000000	      0.00000000	      0.00000000	      0.00000000	      0.00000000	      0.00000000	      0.00000000	    210.45048690	    559.85173671	    -17.46534648	      1.94889393	      0.00000000	      0.95473820	      0.00000000	      4.38549623	      0.00000000
     22.51800000	      0.00000000	      0.00000000	      0.00000000	      0.00000000	      0.00000000	      0.00000000	      0.00000000	      0.00000000	      0.00000000	    206.47869027	    539.13051036	    -17.25576008	      1.94767565	      0.00000000	      0.95488564	      0.00000000	      4.12122380	      0.00000000
     22.51900000	      0.00000000	      0.00000000	      0.00000000	      0.00000000	      0.00000000	      0.00000000	      0.00000000	      0.00000000	      0.00000000	    202.50689363	    518.40928401	    -17.04617368	      1.94645737	      0.00000000	      0.95503307	      0.00000000	      3.85695136	      0.00000000
     22.52000000	      0.00000000	      0.00000000	      0.00000000	      0.00000000	      0.00000000	      0.00000000	      0.00000000	      0.00000000	      0.00000000	    198.53509700	    497.68805766	    -16.83658728	      1.94523909	      0.00000000	      0.95518051	      0.00000000	      3.59267893	      0.00000000
     22.52100000	      0.00000000	      0.00000000	      0.00000000	      0.00000000	      0.00000000	      0.00000000	      0.00000000	      0.00000000	      0.00000000	    194.19127850	    477.72367655	    -16.50755917	      1.94441890	      0.00000000	      0.95532797	      0.00000000	      3.31608292	      0.00000000
     22.52200000	      0.00000000	      0.00000000	      0.00000000	      0.00000000	      0.00000000	      0.00000000	      0.00000000	      0.00000000	      0.00000000	    189.84746000	    457.75929544	    -16.17853107	      1.94359871	      0.00000000	      0.95547544	      0.00000000	      3.03948692	      0.00000000
     22.52300000	      0.00000000	      0.00000000	      0.00000000	      0.00000000	      0.00000000	      0.00000000	      0.00000000	      0.00000000	      0.00000000	    185.50364150	    437.79491433	    -15.84950296	      1.94277853	      0.00000000	      0.95562290	      0.00000000	      2.76289092	      0.00000000
     22.52400000	      0.00000000	      0.00000000	      0.00000000	      0.00000000	      0.00000000	      0.00000000	      0.00000000	      0.00000000	      0.00000000	    180.98629931	    418.44518704	    -15.45556843	      1.94221395	      0.00000000	      0.95576963	      0.00000000	      2.48004746	      0.00000000
     22.52500000	      0.00000000	      0.00000000	      0.00000000	      0.00000000	      0.00000000	      0.00000000	      0.00000000	      0.00000000	      0.00000000	    176.38219526	    399.40278665	    -15.02918068	      1.94177718	      0.00000000	      0.95591598	      0.00000000	      2.19408028	      0.00000000
     22.52600000	      0.00000000	      0.00000000	      0.00000000	      0.00000000	      0.00000000	      0.00000000	      0.00000000	      0.00000000	      0.00000000	    171.77809122	    380.36038627	    -14.60279293	      1.94134042	      0.00000000	      0.95606234	      0.00000000	      1.90811311	      0.00000000
     22.52700000	      0.00000000	      0.00000000	      0.00000000	      0.00000000	      0.00000000	      0.00000000	      0.00000000	      0.00000000	      0.00000000	    167.12458596	    361.67399667	    -14.15162566	      1.94102314	      0.00000000	      0.95620791	      0.00000000	      1.62019374	      0.00000000
     22.52800000	      0.00000000	      0.00000000	      0.00000000	      0.00000000	      0.00000000	      0.00000000	      0.00000000	      0.00000000	      0.00000000	    162.37227826	    343.69962865	    -13.65089935	      1.94094484	      0.00000000	      0.95635193	      0.00000000	      1.32837001	      0.00000000
     22.52900000	      0.00000000	      0.00000000	      0.00000000	      0.00000000	      0.00000000	      0.00000000	      0.00000000	      0.00000000	      0.00000000	    157.61997056	    325.72526063	    -13.15017304	      1.94086654	      0.00000000	      0.95649594	      0.00000000	      1.03654627	      0.00000000
     22.53000000	      0.00000000	      0.00000000	      0.00000000	      0.00000000	      0.00000000	      0.00000000	      0.00000000	      0.00000000	      0.00000000	    152.86766285	    307.75089262	    -12.64944673	      1.94078824	      0.00000000	      0.95663995	      0.00000000	      0.74472254	      0.00000000
     22.53100000	      0.00000000	      0.00000000	      0.00000000	      0.00000000	      0.00000000	      0.00000000	      0.00000000	      0.00000000	      0.00000000	    148.07638318	    290.96867866	    -12.09746344	      1.94103363	      0.00000000	      0.95678031	      0.00000000	      0.45102346	      0.00000000
     22.53200000	      0.00000000	      0.00000000	      0.00000000	      0.00000000	      0.00000000	      0.00000000	      0.00000000	      0.00000000	      0.00000000	    143.28510350	    274.18646471	    -11.54548015	      1.94127903	      0.00000000	      0.95692066	      0.00000000	      0.15732438	      0.00000000
     22.53300000	      0.00000000	      0.00000000	      0.00000000	      0.00000000	      0.00000000	      0.00000000	      0.00000000	      0.00000000	      0.00000000	    138.49382382	    257.40425076	    -10.99349685	      1.94152442	      0.00000000	      0.95706102	      0.00000000	     -0.13637471	      0.00000000
     22.53400000	      0.00000000	      0.00000000	      0.00000000	      0.00000000	      0.00000000	      0.00000000	      0.00000000	      0.00000000	      0.00000000	    133.74544324	    241.48341189	    -10.42222291	      1.94195651	      0.00000000	      0.95719802	      0.00000000	     -0.42844576	      0.00000000
